<svg xmlns="http://www.w3.org/2000/svg" width="765.849609375" height="795.6286010742188" viewBox="-286.4454650878906 -291.31695556640625 765.849609375 795.6286010742188"><title>Neo4j Graph Visualization</title><desc>Created using Neo4j (http://www.neo4j.com/)</desc><g class="layer relationships"><g class="relationship" transform="translate(393.13358888268885 276.6384774067302) rotate(534.9134253851977)"><path class="outline" fill="#A5ABB6" stroke="none" d="M 25 0.5 L 26.13593721062444 0.5 L 26.13593721062444 -0.5 L 25 -0.5 Z M 56.13593721062444 0.5 L 57.27187442124888 0.5 L 57.27187442124888 3.5 L 64.27187442124888 0 L 57.27187442124888 -3.5 L 57.27187442124888 -0.5 L 56.13593721062444 -0.5 Z"/><text text-anchor="middle" pointer-events="none" font-size="8px" fill="#000000" x="41.13593721062444" y="3" transform="rotate(180 41.13593721062444 0)" font-family="sans-serif">ACT…</text></g><g class="relationship" transform="translate(393.13358888268885 276.6384774067302) rotate(195.80721094258774)"><path class="outline" fill="#A5ABB6" stroke="none" d="M 25 0.5 L 40.82378763331862 0.5 L 40.82378763331862 -0.5 L 25 -0.5 Z M 86.38628763331862 0.5 L 102.21007526663723 0.5 L 102.21007526663723 3.5 L 109.21007526663723 0 L 102.21007526663723 -3.5 L 102.21007526663723 -0.5 L 86.38628763331862 -0.5 Z"/><text text-anchor="middle" pointer-events="none" font-size="8px" fill="#000000" x="63.60503763331862" y="3" transform="rotate(180 63.60503763331862 0)" font-family="sans-serif">ACTED_IN</text></g><g class="relationship" transform="translate(230.75200987798135 363.1969314049165) rotate(516.0614446098505)"><path class="outline" fill="#A5ABB6" stroke="none" d="M 25 0.5 L 34.880893009485156 0.5 L 34.880893009485156 -0.5 L 25 -0.5 Z M 80.44339300948516 0.5 L 90.32428601897031 0.5 L 90.32428601897031 3.5 L 97.32428601897031 0 L 90.32428601897031 -3.5 L 90.32428601897031 -0.5 L 80.44339300948516 -0.5 Z"/><text text-anchor="middle" pointer-events="none" font-size="8px" fill="#000000" x="57.662143009485156" y="3" transform="rotate(180 57.662143009485156 0)" font-family="sans-serif">ACTED_IN</text></g><g class="relationship" transform="translate(230.75200987798135 363.1969314049165) rotate(456.31956622599006)"><path class="outline" fill="#A5ABB6" stroke="none" d="M 25 0.5 L 30.118830650066293 0.5 L 30.118830650066293 -0.5 L 25 -0.5 Z M 75.68133065006629 0.5 L 80.80016130013259 0.5 L 80.80016130013259 3.5 L 87.80016130013259 0 L 80.80016130013259 -3.5 L 80.80016130013259 -0.5 L 75.68133065006629 -0.5 Z"/><text text-anchor="middle" pointer-events="none" font-size="8px" fill="#000000" x="52.90008065006629" y="3" transform="rotate(180 52.90008065006629 0)" font-family="sans-serif">ACTED_IN</text></g><g class="relationship" transform="translate(230.75200987798135 363.1969314049165) rotate(285.1117941221732)"><path class="outline" fill="#A5ABB6" stroke="none" d="M 25 0.5 L 37.48249437751551 0.5 L 37.48249437751551 -0.5 L 25 -0.5 Z M 83.04499437751551 0.5 L 95.52748875503102 0.5 L 95.52748875503102 3.5 L 102.52748875503102 0 L 95.52748875503102 -3.5 L 95.52748875503102 -0.5 L 83.04499437751551 -0.5 Z"/><text text-anchor="middle" pointer-events="none" font-size="8px" fill="#000000" x="60.26374437751551" y="3" font-family="sans-serif">ACTED_IN</text></g><g class="relationship" transform="translate(230.75200987798135 363.1969314049165) rotate(313.04866900863664)"><path class="outline" fill="#A5ABB6" stroke="none" d="M 25 0.5 L 27.52711988193689 0.5 L 27.52711988193689 -0.5 L 25 -0.5 Z M 73.0896198819369 0.5 L 75.61673976387378 0.5 L 75.61673976387378 3.5 L 82.61673976387378 0 L 75.61673976387378 -3.5 L 75.61673976387378 -0.5 L 73.0896198819369 -0.5 Z"/><text text-anchor="middle" pointer-events="none" font-size="8px" fill="#000000" x="50.30836988193689" y="3" font-family="sans-serif">ACTED_IN</text></g><g class="relationship" transform="translate(174.92097714984578 275.34435063983125) rotate(338.40196983931605)"><path class="outline" fill="#A5ABB6" stroke="none" d="M 25 0.5 L 26.734216013913972 0.5 L 26.734216013913972 -0.5 L 25 -0.5 Z M 62.07015351391397 0.5 L 63.804369527827944 0.5 L 63.804369527827944 3.5 L 70.80436952782794 0 L 63.804369527827944 -3.5 L 63.804369527827944 -0.5 L 62.07015351391397 -0.5 Z"/><text text-anchor="middle" pointer-events="none" font-size="8px" fill="#000000" x="44.40218476391397" y="3" font-family="sans-serif">ACTE…</text></g><g class="relationship" transform="translate(174.92097714984578 275.34435063983125) rotate(364.0741036311436)"><path class="outline" fill="#A5ABB6" stroke="none" d="M 25 0.5 L 38.52867581559332 0.5 L 38.52867581559332 -0.5 L 25 -0.5 Z M 84.09117581559332 0.5 L 97.61985163118663 0.5 L 97.61985163118663 3.5 L 104.61985163118663 0 L 97.61985163118663 -3.5 L 97.61985163118663 -0.5 L 84.09117581559332 -0.5 Z"/><text text-anchor="middle" pointer-events="none" font-size="8px" fill="#000000" x="61.30992581559332" y="3" font-family="sans-serif">ACTED_IN</text></g><g class="relationship" transform="translate(334.9361594875585 156.5867917939711) rotate(302.29049992869886)"><path class="outline" fill="#A5ABB6" stroke="none" d="M 25 0.5 L 37.093089061686356 0.5 L 37.093089061686356 -0.5 L 25 -0.5 Z M 82.65558906168636 0.5 L 94.74867812337271 0.5 L 94.74867812337271 3.5 L 101.74867812337271 0 L 94.74867812337271 -3.5 L 94.74867812337271 -0.5 L 82.65558906168636 -0.5 Z"/><text text-anchor="middle" pointer-events="none" font-size="8px" fill="#000000" x="59.874339061686356" y="3" font-family="sans-serif">ACTED_IN</text></g><g class="relationship" transform="translate(334.9361594875585 156.5867917939711) rotate(490.3520012129511)"><path class="outline" fill="#A5ABB6" stroke="none" d="M 25 0.5 L 28.498150941243438 0.5 L 28.498150941243438 -0.5 L 25 -0.5 Z M 74.06065094124344 0.5 L 77.55880188248688 0.5 L 77.55880188248688 3.5 L 84.55880188248688 0 L 77.55880188248688 -3.5 L 77.55880188248688 -0.5 L 74.06065094124344 -0.5 Z"/><text text-anchor="middle" pointer-events="none" font-size="8px" fill="#000000" x="51.27940094124344" y="3" transform="rotate(180 51.27940094124344 0)" font-family="sans-serif">ACTED_IN</text></g><g class="relationship" transform="translate(334.9361594875585 156.5867917939711) rotate(463.50034520702474)"><path class="outline" fill="#A5ABB6" stroke="none" d="M 25 0.5 L 39.52024858589728 0.5 L 39.52024858589728 -0.5 L 25 -0.5 Z M 85.08274858589728 0.5 L 99.60299717179456 0.5 L 99.60299717179456 3.5 L 106.60299717179456 0 L 99.60299717179456 -3.5 L 99.60299717179456 -0.5 L 85.08274858589728 -0.5 Z"/><text text-anchor="middle" pointer-events="none" font-size="8px" fill="#000000" x="62.30149858589728" y="3" transform="rotate(180 62.30149858589728 0)" font-family="sans-serif">ACTED_IN</text></g><g class="relationship" transform="translate(334.9361594875585 156.5867917939711) rotate(346.41463294250616)"><path class="outline" fill="#A5ABB6" stroke="none" d="M 25 0.5 L 33.114559887143365 0.5 L 33.114559887143365 -0.5 L 25 -0.5 Z M 78.67705988714337 0.5 L 86.79161977428673 0.5 L 86.79161977428673 3.5 L 93.79161977428673 0 L 86.79161977428673 -3.5 L 86.79161977428673 -0.5 L 78.67705988714337 -0.5 Z"/><text text-anchor="middle" pointer-events="none" font-size="8px" fill="#000000" x="55.895809887143365" y="3" font-family="sans-serif">ACTED_IN</text></g><g class="relationship" transform="translate(334.9361594875585 156.5867917939711) rotate(222.18665047645356)"><path class="outline" fill="#A5ABB6" stroke="none" d="M 25 0.5 L 32.89820109454478 0.5 L 32.89820109454478 -0.5 L 25 -0.5 Z M 78.46070109454479 0.5 L 86.35890218908956 0.5 L 86.35890218908956 3.5 L 93.35890218908956 0 L 86.35890218908956 -3.5 L 86.35890218908956 -0.5 L 78.46070109454479 -0.5 Z"/><text text-anchor="middle" pointer-events="none" font-size="8px" fill="#000000" x="55.67945109454478" y="3" transform="rotate(180 55.67945109454478 0)" font-family="sans-serif">ACTED_IN</text></g><g class="relationship" transform="translate(334.9361594875585 156.5867917939711) rotate(265.0153073236675)"><path class="outline" fill="#A5ABB6" stroke="none" d="M 25 0.5 L 37.27535375822563 0.5 L 37.27535375822563 -0.5 L 25 -0.5 Z M 82.83785375822563 0.5 L 95.11320751645125 0.5 L 95.11320751645125 3.5 L 102.11320751645125 0 L 95.11320751645125 -3.5 L 95.11320751645125 -0.5 L 82.83785375822563 -0.5 Z"/><text text-anchor="middle" pointer-events="none" font-size="8px" fill="#000000" x="60.05660375822563" y="3" transform="rotate(180 60.05660375822563 0)" font-family="sans-serif">ACTED_IN</text></g><g class="relationship" transform="translate(2.3003094682741487 0.888687066386) rotate(220.24331754425543)"><path class="outline" fill="#A5ABB6" stroke="none" d="M 25 0.5 L 26.327437942502527 0.5 L 26.327437942502527 -0.5 L 25 -0.5 Z M 51.44071919250253 0.5 L 52.768157135005055 0.5 L 52.768157135005055 3.5 L 59.768157135005055 0 L 52.768157135005055 -3.5 L 52.768157135005055 -0.5 L 51.44071919250253 -0.5 Z"/><text text-anchor="middle" pointer-events="none" font-size="8px" fill="#000000" x="38.88407856750253" y="3" transform="rotate(180 38.88407856750253 0)" font-family="sans-serif">AC…</text></g><g class="relationship" transform="translate(2.3003094682741487 0.888687066386) rotate(206.92697989467376)"><path class="outline" fill="#A5ABB6" stroke="none" d="M 25 0.5 L 43.29151346412313 0.5 L 43.29151346412313 -0.5 L 25 -0.5 Z M 88.85401346412313 0.5 L 107.14552692824626 0.5 L 107.14552692824626 3.5 L 114.14552692824626 0 L 107.14552692824626 -3.5 L 107.14552692824626 -0.5 L 88.85401346412313 -0.5 Z"/><text text-anchor="middle" pointer-events="none" font-size="8px" fill="#000000" x="66.07276346412313" y="3" transform="rotate(180 66.07276346412313 0)" font-family="sans-serif">ACTED_IN</text></g><g class="relationship" transform="translate(-27.70200791057137 -154.56181242147412) rotate(344.46131320460984)"><path class="outline" fill="#A5ABB6" stroke="none" d="M 25 0.5 L 35.27690929919816 0.5 L 35.27690929919816 -0.5 L 25 -0.5 Z M 80.83940929919817 0.5 L 91.11631859839632 0.5 L 91.11631859839632 3.5 L 98.11631859839632 0 L 91.11631859839632 -3.5 L 91.11631859839632 -0.5 L 80.83940929919817 -0.5 Z"/><text text-anchor="middle" pointer-events="none" font-size="8px" fill="#000000" x="58.05815929919816" y="3" font-family="sans-serif">ACTED_IN</text></g><g class="relationship" transform="translate(-27.70200791057137 -154.56181242147412) rotate(495.4976444498502)"><path class="outline" fill="#A5ABB6" stroke="none" d="M 25 0.5 L 39.65734279857651 0.5 L 39.65734279857651 -0.5 L 25 -0.5 Z M 85.21984279857651 0.5 L 99.87718559715302 0.5 L 99.87718559715302 3.5 L 106.87718559715302 0 L 99.87718559715302 -3.5 L 99.87718559715302 -0.5 L 85.21984279857651 -0.5 Z"/><text text-anchor="middle" pointer-events="none" font-size="8px" fill="#000000" x="62.43859279857651" y="3" transform="rotate(180 62.43859279857651 0)" font-family="sans-serif">ACTED_IN</text></g><g class="relationship" transform="translate(-27.70200791057137 -154.56181242147412) rotate(469.01651181532475)"><path class="outline" fill="#A5ABB6" stroke="none" d="M 25 0.5 L 26.96852508837692 0.5 L 26.96852508837692 -0.5 L 25 -0.5 Z M 72.53102508837692 0.5 L 74.49955017675384 0.5 L 74.49955017675384 3.5 L 81.49955017675384 0 L 74.49955017675384 -3.5 L 74.49955017675384 -0.5 L 72.53102508837692 -0.5 Z"/><text text-anchor="middle" pointer-events="none" font-size="8px" fill="#000000" x="49.74977508837692" y="3" transform="rotate(180 49.74977508837692 0)" font-family="sans-serif">ACTED_IN</text></g><g class="relationship" transform="translate(-27.70200791057137 -154.56181242147412) rotate(291.98891715156304)"><path class="outline" fill="#A5ABB6" stroke="none" d="M 25 0.5 L 31.82304348957193 0.5 L 31.82304348957193 -0.5 L 25 -0.5 Z M 77.38554348957193 0.5 L 84.20858697914386 0.5 L 84.20858697914386 3.5 L 91.20858697914386 0 L 84.20858697914386 -3.5 L 84.20858697914386 -0.5 L 77.38554348957193 -0.5 Z"/><text text-anchor="middle" pointer-events="none" font-size="8px" fill="#000000" x="54.60429348957193" y="3" font-family="sans-serif">ACTED_IN</text></g><g class="relationship" transform="translate(-140.94922903892567 48.204196238107784) rotate(412.9974702528899)"><path class="outline" fill="#A5ABB6" stroke="none" d="M 25 0.5 L 34.23775072304027 0.5 L 34.23775072304027 -0.5 L 25 -0.5 Z M 79.80025072304028 0.5 L 89.03800144608054 0.5 L 89.03800144608054 3.5 L 96.03800144608054 0 L 89.03800144608054 -3.5 L 89.03800144608054 -0.5 L 79.80025072304028 -0.5 Z"/><text text-anchor="middle" pointer-events="none" font-size="8px" fill="#000000" x="57.01900072304027" y="3" font-family="sans-serif">ACTED_IN</text></g><g class="relationship" transform="translate(-140.94922903892567 48.204196238107784) rotate(279.86683846124475)"><path class="outline" fill="#A5ABB6" stroke="none" d="M 25 0.5 L 29.711050872158104 0.5 L 29.711050872158104 -0.5 L 25 -0.5 Z M 75.2735508721581 0.5 L 79.98460174431621 0.5 L 79.98460174431621 3.5 L 86.98460174431621 0 L 79.98460174431621 -3.5 L 79.98460174431621 -0.5 L 75.2735508721581 -0.5 Z"/><text text-anchor="middle" pointer-events="none" font-size="8px" fill="#000000" x="52.492300872158104" y="3" font-family="sans-serif">ACTED_IN</text></g><g class="relationship" transform="translate(-140.94922903892567 48.204196238107784) rotate(452.8198487138409)"><path class="outline" fill="#A5ABB6" stroke="none" d="M 25 0.5 L 37.6880265931138 0.5 L 37.6880265931138 -0.5 L 25 -0.5 Z M 83.25052659311379 0.5 L 95.9385531862276 0.5 L 95.9385531862276 3.5 L 102.9385531862276 0 L 95.9385531862276 -3.5 L 95.9385531862276 -0.5 L 83.25052659311379 -0.5 Z"/><text text-anchor="middle" pointer-events="none" font-size="8px" fill="#000000" x="60.4692765931138" y="3" transform="rotate(180 60.4692765931138 0)" font-family="sans-serif">ACTED_IN</text></g><g class="relationship" transform="translate(-140.94922903892567 48.204196238107784) rotate(180.74019933502439)"><path class="outline" fill="#A5ABB6" stroke="none" d="M 25 0.5 L 31.971723231089072 0.5 L 31.971723231089072 -0.5 L 25 -0.5 Z M 77.53422323108907 0.5 L 84.50594646217814 0.5 L 84.50594646217814 3.5 L 91.50594646217814 0 L 84.50594646217814 -3.5 L 84.50594646217814 -0.5 L 77.53422323108907 -0.5 Z"/><text text-anchor="middle" pointer-events="none" font-size="8px" fill="#000000" x="54.75297323108907" y="3" transform="rotate(180 54.75297323108907 0)" font-family="sans-serif">ACTED_IN</text></g><g class="relationship" transform="translate(-140.94922903892567 48.204196238107784) rotate(491.3657082074793)"><path class="outline" fill="#A5ABB6" stroke="none" d="M 25 0.5 L 35.88579652203726 0.5 L 35.88579652203726 -0.5 L 25 -0.5 Z M 81.44829652203725 0.5 L 92.33409304407452 0.5 L 92.33409304407452 3.5 L 99.33409304407452 0 L 92.33409304407452 -3.5 L 92.33409304407452 -0.5 L 81.44829652203725 -0.5 Z"/><text text-anchor="middle" pointer-events="none" font-size="8px" fill="#000000" x="58.66704652203726" y="3" transform="rotate(180 58.66704652203726 0)" font-family="sans-serif">ACTED_IN</text></g><g class="relationship" transform="translate(-140.94922903892567 48.204196238107784) rotate(307.57679424590503)"><path class="outline" fill="#A5ABB6" stroke="none" d="M 25 0.5 L 38.11873450938319 0.5 L 38.11873450938319 -0.5 L 25 -0.5 Z M 83.68123450938319 0.5 L 96.79996901876638 0.5 L 96.79996901876638 3.5 L 103.79996901876638 0 L 96.79996901876638 -3.5 L 96.79996901876638 -0.5 L 83.68123450938319 -0.5 Z"/><text text-anchor="middle" pointer-events="none" font-size="8px" fill="#000000" x="60.89998450938319" y="3" font-family="sans-serif">ACTED_IN</text></g><g class="relationship" transform="translate(-141.62350861006516 -153.89910225993106) rotate(437.7872606288776)"><path class="outline" fill="#A5ABB6" stroke="none" d="M 25 0.5 L 25.782113007809293 0.5 L 25.782113007809293 -0.5 L 25 -0.5 Z M 61.11805050780929 0.5 L 61.90016351561859 0.5 L 61.90016351561859 3.5 L 68.90016351561859 0 L 61.90016351561859 -3.5 L 61.90016351561859 -0.5 L 61.11805050780929 -0.5 Z"/><text text-anchor="middle" pointer-events="none" font-size="8px" fill="#000000" x="43.45008175780929" y="3" font-family="sans-serif">ACTE…</text></g><g class="relationship" transform="translate(-141.62350861006516 -153.89910225993106) rotate(411.6207267080843)"><path class="outline" fill="#A5ABB6" stroke="none" d="M 25 0.5 L 37.51661082397707 0.5 L 37.51661082397707 -0.5 L 25 -0.5 Z M 83.07911082397706 0.5 L 95.59572164795414 0.5 L 95.59572164795414 3.5 L 102.59572164795414 0 L 95.59572164795414 -3.5 L 95.59572164795414 -0.5 L 83.07911082397706 -0.5 Z"/><text text-anchor="middle" pointer-events="none" font-size="8px" fill="#000000" x="60.29786082397707" y="3" font-family="sans-serif">ACTED_IN</text></g></g><g class="layer nodes"><g class="node" transform="translate(304.21327892897824,284.553402574997)"><circle class="outline" cx="0" cy="0" r="25" fill="#F79767" stroke="#f36924" stroke-width="2px"/><text text-anchor="middle" pointer-events="none" font-family="sans-serif" dy="1.5625" font-size="25" fill="#FFFFFF"/><text text-anchor="middle" pointer-events="none" font-family="sans-serif" dy="1.5625" font-size="25" fill="#FFFFFF"/><text text-anchor="middle" pointer-events="none" font-family="sans-serif" dy="1.5625" font-size="25" fill="#FFFFFF"/><text text-anchor="middle" pointer-events="none" y="-5" font-size="10px" fill="#FFFFFF" font-family="sans-serif"> The</text><text text-anchor="middle" pointer-events="none" y="5" font-size="10px" fill="#FFFFFF" font-family="sans-serif"> Matrix</text><text text-anchor="middle" pointer-events="none" y="15" font-size="10px" fill="#FFFFFF" font-family="sans-serif"> Reloa…</text></g><g class="node" transform="translate(393.13358888268885,276.6384774067302)"><circle class="outline" cx="0" cy="0" r="25" fill="#57C7E3" stroke="#23b3d7" stroke-width="2px"/><text text-anchor="middle" pointer-events="none" font-family="sans-serif" dy="1.5625" font-size="25" fill="#FFFFFF"/><text text-anchor="middle" pointer-events="none" font-family="sans-serif" dy="1.5625" font-size="25" fill="#FFFFFF"/><text text-anchor="middle" pointer-events="none" y="0" font-size="10px" fill="#FFFFFF" font-family="sans-serif"> Laurence</text><text text-anchor="middle" pointer-events="none" y="10" font-size="10px" fill="#FFFFFF" font-family="sans-serif"> Fishbur…</text></g><g class="node" transform="translate(263.998839647737,240.07947245442705)"><circle class="outline" cx="0" cy="0" r="25" fill="#F79767" stroke="#f36924" stroke-width="2px"/><text text-anchor="middle" pointer-events="none" font-family="sans-serif" dy="1.5625" font-size="25" fill="#FFFFFF"/><text text-anchor="middle" pointer-events="none" font-family="sans-serif" dy="1.5625" font-size="25" fill="#FFFFFF"/><text text-anchor="middle" pointer-events="none" font-family="sans-serif" dy="1.5625" font-size="25" fill="#FFFFFF"/><text text-anchor="middle" pointer-events="none" y="-5" font-size="10px" fill="#FFFFFF" font-family="sans-serif"> The</text><text text-anchor="middle" pointer-events="none" y="5" font-size="10px" fill="#FFFFFF" font-family="sans-serif"> Matrix</text><text text-anchor="middle" pointer-events="none" y="15" font-size="10px" fill="#FFFFFF" font-family="sans-serif"> Revol…</text></g><g class="node" transform="translate(118.94992181817811,412.8308316699456)"><circle class="outline" cx="0" cy="0" r="25" fill="#F79767" stroke="#f36924" stroke-width="2px"/><text text-anchor="middle" pointer-events="none" font-family="sans-serif" dy="1.5625" font-size="25" fill="#FFFFFF"/><text text-anchor="middle" pointer-events="none" font-family="sans-serif" dy="1.5625" font-size="25" fill="#FFFFFF"/><text text-anchor="middle" pointer-events="none" y="0" font-size="10px" fill="#FFFFFF" font-family="sans-serif"> Cloud</text><text text-anchor="middle" pointer-events="none" y="10" font-size="10px" fill="#FFFFFF" font-family="sans-serif"> Atlas</text></g><g class="node" transform="translate(230.75200987798135,363.1969314049165)"><circle class="outline" cx="0" cy="0" r="25" fill="#57C7E3" stroke="#23b3d7" stroke-width="2px"/><text text-anchor="middle" pointer-events="none" font-family="sans-serif" dy="1.5625" font-size="25" fill="#FFFFFF"/><text text-anchor="middle" pointer-events="none" font-family="sans-serif" dy="1.5625" font-size="25" fill="#FFFFFF"/><text text-anchor="middle" pointer-events="none" y="0" font-size="10px" fill="#FFFFFF" font-family="sans-serif"> Hugo</text><text text-anchor="middle" pointer-events="none" y="10" font-size="10px" fill="#FFFFFF" font-family="sans-serif"> Weaving</text></g><g class="node" transform="translate(218.33567453897194,475.31165392647114)"><circle class="outline" cx="0" cy="0" r="25" fill="#F79767" stroke="#f36924" stroke-width="2px"/><text text-anchor="middle" pointer-events="none" font-family="sans-serif" dy="1.5625" font-size="25" fill="#FFFFFF"/><text text-anchor="middle" pointer-events="none" font-family="sans-serif" dy="1.5625" font-size="25" fill="#FFFFFF"/><text text-anchor="middle" pointer-events="none" y="0" font-size="10px" fill="#FFFFFF" font-family="sans-serif"> V for</text><text text-anchor="middle" pointer-events="none" y="10" font-size="10px" fill="#FFFFFF" font-family="sans-serif"> Vendetta</text></g><g class="node" transform="translate(174.92097714984578,275.34435063983125)"><circle class="outline" cx="0" cy="0" r="25" fill="#57C7E3" stroke="#23b3d7" stroke-width="2px"/><text text-anchor="middle" pointer-events="none" font-family="sans-serif" dy="1.5625" font-size="25" fill="#FFFFFF"/><text text-anchor="middle" pointer-events="none" y="5" font-size="10px" fill="#FFFFFF" font-family="sans-serif"> Carrie-A…</text></g><g class="node" transform="translate(402.64684856893484,49.4397433505001)"><circle class="outline" cx="0" cy="0" r="25" fill="#F79767" stroke="#f36924" stroke-width="2px"/><text text-anchor="middle" pointer-events="none" font-family="sans-serif" dy="1.5625" font-size="25" fill="#FFFFFF"/><text text-anchor="middle" pointer-events="none" y="5" font-size="10px" fill="#FFFFFF" font-family="sans-serif"> Somethi…</text></g><g class="node" transform="translate(334.9361594875585,156.5867917939711)"><circle class="outline" cx="0" cy="0" r="25" fill="#57C7E3" stroke="#23b3d7" stroke-width="2px"/><text text-anchor="middle" pointer-events="none" font-family="sans-serif" dy="1.5625" font-size="25" fill="#FFFFFF"/><text text-anchor="middle" pointer-events="none" font-family="sans-serif" dy="1.5625" font-size="25" fill="#FFFFFF"/><text text-anchor="middle" pointer-events="none" y="0" font-size="10px" fill="#FFFFFF" font-family="sans-serif"> Keanu</text><text text-anchor="middle" pointer-events="none" y="10" font-size="10px" fill="#FFFFFF" font-family="sans-serif"> Reeves</text></g><g class="node" transform="translate(450.40411120918844,128.68336810063116)"><circle class="outline" cx="0" cy="0" r="25" fill="#F79767" stroke="#f36924" stroke-width="2px"/><text text-anchor="middle" pointer-events="none" font-family="sans-serif" dy="1.5625" font-size="25" fill="#FFFFFF"/><text text-anchor="middle" pointer-events="none" font-family="sans-serif" dy="1.5625" font-size="25" fill="#FFFFFF"/><text text-anchor="middle" pointer-events="none" font-family="sans-serif" dy="1.5625" font-size="25" fill="#FFFFFF"/><text text-anchor="middle" pointer-events="none" y="-5" font-size="10px" fill="#FFFFFF" font-family="sans-serif"> The</text><text text-anchor="middle" pointer-events="none" y="5" font-size="10px" fill="#FFFFFF" font-family="sans-serif"> Devil's</text><text text-anchor="middle" pointer-events="none" y="15" font-size="10px" fill="#FFFFFF" font-family="sans-serif"> Advoc…</text></g><g class="node" transform="translate(247.23681920196123,77.10311145091268)"><circle class="outline" cx="0" cy="0" r="25" fill="#F79767" stroke="#f36924" stroke-width="2px"/><text text-anchor="middle" pointer-events="none" font-family="sans-serif" dy="1.5625" font-size="25" fill="#FFFFFF"/><text text-anchor="middle" pointer-events="none" font-family="sans-serif" dy="1.5625" font-size="25" fill="#FFFFFF"/><text text-anchor="middle" pointer-events="none" y="0" font-size="10px" fill="#FFFFFF" font-family="sans-serif"> The</text><text text-anchor="middle" pointer-events="none" y="10" font-size="10px" fill="#FFFFFF" font-family="sans-serif"> Replac…</text></g><g class="node" transform="translate(323.8913446114415,29.954333121351517)"><circle class="outline" cx="0" cy="0" r="25" fill="#F79767" stroke="#f36924" stroke-width="2px"/><text text-anchor="middle" pointer-events="none" font-family="sans-serif" dy="1.5625" font-size="25" fill="#FFFFFF"/><text text-anchor="middle" pointer-events="none" font-family="sans-serif" dy="1.5625" font-size="25" fill="#FFFFFF"/><text text-anchor="middle" pointer-events="none" y="0" font-size="10px" fill="#FFFFFF" font-family="sans-serif"> Johnny</text><text text-anchor="middle" pointer-events="none" y="10" font-size="10px" fill="#FFFFFF" font-family="sans-serif"> Mnemo…</text></g><g class="node" transform="translate(-62.4038879788556,-53.87450583530444)"><circle class="outline" cx="0" cy="0" r="25" fill="#F79767" stroke="#f36924" stroke-width="2px"/><text text-anchor="middle" pointer-events="none" font-family="sans-serif" dy="1.5625" font-size="25" fill="#FFFFFF"/><text text-anchor="middle" pointer-events="none" font-family="sans-serif" dy="1.5625" font-size="25" fill="#FFFFFF"/><text text-anchor="middle" pointer-events="none" font-family="sans-serif" dy="1.5625" font-size="25" fill="#FFFFFF"/><text text-anchor="middle" pointer-events="none" y="-5" font-size="10px" fill="#FFFFFF" font-family="sans-serif"> The</text><text text-anchor="middle" pointer-events="none" y="5" font-size="10px" fill="#FFFFFF" font-family="sans-serif"> Matrix</text><text text-anchor="middle" pointer-events="none" y="15" font-size="10px" fill="#FFFFFF" font-family="sans-serif"> Reloa…</text></g><g class="node" transform="translate(2.3003094682741487,0.888687066386)"><circle class="outline" cx="0" cy="0" r="25" fill="#57C7E3" stroke="#23b3d7" stroke-width="2px"/><text text-anchor="middle" pointer-events="none" font-family="sans-serif" dy="1.5625" font-size="25" fill="#FFFFFF"/><text text-anchor="middle" pointer-events="none" y="5" font-size="10px" fill="#FFFFFF" font-family="sans-serif"> Carrie-A…</text></g><g class="node" transform="translate(-121.75966953747125,-62.12400429998334)"><circle class="outline" cx="0" cy="0" r="25" fill="#F79767" stroke="#f36924" stroke-width="2px"/><text text-anchor="middle" pointer-events="none" font-family="sans-serif" dy="1.5625" font-size="25" fill="#FFFFFF"/><text text-anchor="middle" pointer-events="none" font-family="sans-serif" dy="1.5625" font-size="25" fill="#FFFFFF"/><text text-anchor="middle" pointer-events="none" font-family="sans-serif" dy="1.5625" font-size="25" fill="#FFFFFF"/><text text-anchor="middle" pointer-events="none" y="-5" font-size="10px" fill="#FFFFFF" font-family="sans-serif"> The</text><text text-anchor="middle" pointer-events="none" y="5" font-size="10px" fill="#FFFFFF" font-family="sans-serif"> Matrix</text><text text-anchor="middle" pointer-events="none" y="15" font-size="10px" fill="#FFFFFF" font-family="sans-serif"> Revol…</text></g><g class="node" transform="translate(90.91438351304792,-187.5433161904135)"><circle class="outline" cx="0" cy="0" r="25" fill="#F79767" stroke="#f36924" stroke-width="2px"/><text text-anchor="middle" pointer-events="none" font-family="sans-serif" dy="1.5625" font-size="25" fill="#FFFFFF"/><text text-anchor="middle" pointer-events="none" font-family="sans-serif" dy="1.5625" font-size="25" fill="#FFFFFF"/><text text-anchor="middle" pointer-events="none" y="0" font-size="10px" fill="#FFFFFF" font-family="sans-serif"> Cloud</text><text text-anchor="middle" pointer-events="none" y="10" font-size="10px" fill="#FFFFFF" font-family="sans-serif"> Atlas</text></g><g class="node" transform="translate(-27.70200791057137,-154.56181242147412)"><circle class="outline" cx="0" cy="0" r="25" fill="#57C7E3" stroke="#23b3d7" stroke-width="2px"/><text text-anchor="middle" pointer-events="none" font-family="sans-serif" dy="1.5625" font-size="25" fill="#FFFFFF"/><text text-anchor="middle" pointer-events="none" font-family="sans-serif" dy="1.5625" font-size="25" fill="#FFFFFF"/><text text-anchor="middle" pointer-events="none" y="0" font-size="10px" fill="#FFFFFF" font-family="sans-serif"> Hugo</text><text text-anchor="middle" pointer-events="none" y="10" font-size="10px" fill="#FFFFFF" font-family="sans-serif"> Weaving</text></g><g class="node" transform="translate(15.809652483369348,-262.3169566023976)"><circle class="outline" cx="0" cy="0" r="25" fill="#F79767" stroke="#f36924" stroke-width="2px"/><text text-anchor="middle" pointer-events="none" font-family="sans-serif" dy="1.5625" font-size="25" fill="#FFFFFF"/><text text-anchor="middle" pointer-events="none" font-family="sans-serif" dy="1.5625" font-size="25" fill="#FFFFFF"/><text text-anchor="middle" pointer-events="none" y="0" font-size="10px" fill="#FFFFFF" font-family="sans-serif"> V for</text><text text-anchor="middle" pointer-events="none" y="10" font-size="10px" fill="#FFFFFF" font-family="sans-serif"> Vendetta</text></g><g class="node" transform="translate(-68.1024734631919,144.8662259920432)"><circle class="outline" cx="0" cy="0" r="25" fill="#F79767" stroke="#f36924" stroke-width="2px"/><text text-anchor="middle" pointer-events="none" font-family="sans-serif" dy="1.5625" font-size="25" fill="#FFFFFF"/><text text-anchor="middle" pointer-events="none" font-family="sans-serif" dy="1.5625" font-size="25" fill="#FFFFFF"/><text text-anchor="middle" pointer-events="none" font-family="sans-serif" dy="1.5625" font-size="25" fill="#FFFFFF"/><text text-anchor="middle" pointer-events="none" y="-5" font-size="10px" fill="#FFFFFF" font-family="sans-serif"> The</text><text text-anchor="middle" pointer-events="none" y="5" font-size="10px" fill="#FFFFFF" font-family="sans-serif"> Devil's</text><text text-anchor="middle" pointer-events="none" y="15" font-size="10px" fill="#FFFFFF" font-family="sans-serif"> Advoc…</text></g><g class="node" transform="translate(-140.94922903892567,48.204196238107784)"><circle class="outline" cx="0" cy="0" r="25" fill="#57C7E3" stroke="#23b3d7" stroke-width="2px"/><text text-anchor="middle" pointer-events="none" font-family="sans-serif" dy="1.5625" font-size="25" fill="#FFFFFF"/><text text-anchor="middle" pointer-events="none" font-family="sans-serif" dy="1.5625" font-size="25" fill="#FFFFFF"/><text text-anchor="middle" pointer-events="none" y="0" font-size="10px" fill="#FFFFFF" font-family="sans-serif"> Keanu</text><text text-anchor="middle" pointer-events="none" y="10" font-size="10px" fill="#FFFFFF" font-family="sans-serif"> Reeves</text></g><g class="node" transform="translate(-147.24326578635754,175.98783561657893)"><circle class="outline" cx="0" cy="0" r="25" fill="#F79767" stroke="#f36924" stroke-width="2px"/><text text-anchor="middle" pointer-events="none" font-family="sans-serif" dy="1.5625" font-size="25" fill="#FFFFFF"/><text text-anchor="middle" pointer-events="none" font-family="sans-serif" dy="1.5625" font-size="25" fill="#FFFFFF"/><text text-anchor="middle" pointer-events="none" y="0" font-size="10px" fill="#FFFFFF" font-family="sans-serif"> The</text><text text-anchor="middle" pointer-events="none" y="10" font-size="10px" fill="#FFFFFF" font-family="sans-serif"> Replac…</text></g><g class="node" transform="translate(-257.4454533095689,46.699107625462474)"><circle class="outline" cx="0" cy="0" r="25" fill="#F79767" stroke="#f36924" stroke-width="2px"/><text text-anchor="middle" pointer-events="none" font-family="sans-serif" dy="1.5625" font-size="25" fill="#FFFFFF"/><text text-anchor="middle" pointer-events="none" font-family="sans-serif" dy="1.5625" font-size="25" fill="#FFFFFF"/><text text-anchor="middle" pointer-events="none" y="0" font-size="10px" fill="#FFFFFF" font-family="sans-serif"> Johnny</text><text text-anchor="middle" pointer-events="none" y="10" font-size="10px" fill="#FFFFFF" font-family="sans-serif"> Mnemo…</text></g><g class="node" transform="translate(-223.1170061418153,141.51777027244873)"><circle class="outline" cx="0" cy="0" r="25" fill="#F79767" stroke="#f36924" stroke-width="2px"/><text text-anchor="middle" pointer-events="none" font-family="sans-serif" dy="1.5625" font-size="25" fill="#FFFFFF"/><text text-anchor="middle" pointer-events="none" y="5" font-size="10px" fill="#FFFFFF" font-family="sans-serif"> Somethi…</text></g><g class="node" transform="translate(-141.62350861006516,-153.89910225993106)"><circle class="outline" cx="0" cy="0" r="25" fill="#57C7E3" stroke="#23b3d7" stroke-width="2px"/><text text-anchor="middle" pointer-events="none" font-family="sans-serif" dy="1.5625" font-size="25" fill="#FFFFFF"/><text text-anchor="middle" pointer-events="none" font-family="sans-serif" dy="1.5625" font-size="25" fill="#FFFFFF"/><text text-anchor="middle" pointer-events="none" y="0" font-size="10px" fill="#FFFFFF" font-family="sans-serif"> Laurence</text><text text-anchor="middle" pointer-events="none" y="10" font-size="10px" fill="#FFFFFF" font-family="sans-serif"> Fishbur…</text></g></g></svg>