<svg xmlns="http://www.w3.org/2000/svg" width="896.81689453125" height="882.413330078125" viewBox="-334.09375 -325.5174865722656 896.81689453125 882.413330078125"><title>Neo4j Graph Visualization</title><desc>Created using Neo4j (http://www.neo4j.com/)</desc><g class="layer relationships"><g class="relationship" transform="translate(81.8347647482129 262.1087022884887) rotate(369.8181847347139)"><path class="outline" fill="#A5ABB6" stroke="none" d="M 25 0.5 L 27.39289213837774 0.5 L 27.39289213837774 -0.5 L 25 -0.5 Z M 72.95539213837773 0.5 L 75.34828427675548 0.5 L 75.34828427675548 3.5 L 82.34828427675548 0 L 75.34828427675548 -3.5 L 75.34828427675548 -0.5 L 72.95539213837773 -0.5 Z"/><text text-anchor="middle" pointer-events="none" font-size="8px" fill="#000000" x="50.17414213837774" y="3" font-family="sans-serif">ACTED_IN</text></g><g class="relationship" transform="translate(163.26276698199138 390.2987017446131) rotate(282.49362968128383)"><path class="outline" fill="#A5ABB6" stroke="none" d="M 25 0.5 L 29.99370180354508 0.5 L 29.99370180354508 -0.5 L 25 -0.5 Z M 75.55620180354508 0.5 L 80.54990360709016 0.5 L 80.54990360709016 3.5 L 87.54990360709016 0 L 80.54990360709016 -3.5 L 80.54990360709016 -0.5 L 75.55620180354508 -0.5 Z"/><text text-anchor="middle" pointer-events="none" font-size="8px" fill="#000000" x="52.77495180354508" y="3" font-family="sans-serif">ACTED_IN</text></g><g class="relationship" transform="translate(172.24153976521285 172.65060947883438) rotate(441.883183975541)"><path class="outline" fill="#A5ABB6" stroke="none" d="M 25 0.5 L 28.145666127696437 0.5 L 28.145666127696437 -0.5 L 25 -0.5 Z M 73.70816612769644 0.5 L 76.85383225539287 0.5 L 76.85383225539287 3.5 L 83.85383225539287 0 L 76.85383225539287 -3.5 L 76.85383225539287 -0.5 L 73.70816612769644 -0.5 Z"/><text text-anchor="middle" pointer-events="none" font-size="8px" fill="#000000" x="50.92691612769644" y="3" font-family="sans-serif">ACTED_IN</text></g><g class="relationship" transform="translate(388.1157915534582 485.07983701670963) rotate(300.9855880733167)"><path class="outline" fill="#A5ABB6" stroke="none" d="M 25 0.5 L 30.283648353021746 0.5 L 30.283648353021746 -0.5 L 25 -0.5 Z M 75.84614835302175 0.5 L 81.12979670604349 0.5 L 81.12979670604349 3.5 L 88.12979670604349 0 L 81.12979670604349 -3.5 L 81.12979670604349 -0.5 L 75.84614835302175 -0.5 Z"/><text text-anchor="middle" pointer-events="none" font-size="8px" fill="#000000" x="53.064898353021746" y="3" font-family="sans-serif">ACTED_IN</text></g><g class="relationship" transform="translate(336.8895332783609 387.1996211550368) rotate(360.4681205688575)"><path class="outline" fill="#A5ABB6" stroke="none" d="M 25 0.5 L 28.454585600764226 0.5 L 28.454585600764226 -0.5 L 25 -0.5 Z M 74.01708560076423 0.5 L 77.47167120152845 0.5 L 77.47167120152845 3.5 L 84.47167120152845 0 L 77.47167120152845 -3.5 L 77.47167120152845 -0.5 L 74.01708560076423 -0.5 Z"/><text text-anchor="middle" pointer-events="none" font-size="8px" fill="#000000" x="51.235835600764226" y="3" font-family="sans-serif">ACTED_IN</text></g><g class="relationship" transform="translate(533.7231450839178 320.60427974584013) rotate(502.3139876163061)"><path class="outline" fill="#A5ABB6" stroke="none" d="M 25 0.5 L 28.917509799914768 0.5 L 28.917509799914768 -0.5 L 25 -0.5 Z M 74.48000979991477 0.5 L 78.39751959982954 0.5 L 78.39751959982954 3.5 L 85.39751959982954 0 L 78.39751959982954 -3.5 L 78.39751959982954 -0.5 L 74.48000979991477 -0.5 Z"/><text text-anchor="middle" pointer-events="none" font-size="8px" fill="#000000" x="51.69875979991477" y="3" transform="rotate(180 51.69875979991477 0)" font-family="sans-serif">ACTED_IN</text></g><g class="relationship" transform="translate(434.1266912656722 275.5046960007429) rotate(443.80012845375046)"><path class="outline" fill="#A5ABB6" stroke="none" d="M 25 0.5 L 30.344605760997275 0.5 L 30.344605760997275 -0.5 L 25 -0.5 Z M 75.90710576099727 0.5 L 81.25171152199455 0.5 L 81.25171152199455 3.5 L 88.25171152199455 0 L 81.25171152199455 -3.5 L 81.25171152199455 -0.5 L 75.90710576099727 -0.5 Z"/><text text-anchor="middle" pointer-events="none" font-size="8px" fill="#000000" x="53.125855760997275" y="3" font-family="sans-serif">ACTED_IN</text></g><g class="relationship" transform="translate(322.96569624371824 -113.14598942263505) rotate(389.7485413537247)"><path class="outline" fill="#A5ABB6" stroke="none" d="M 25 0.5 L 43.190128025065206 0.5 L 43.190128025065206 -0.5 L 25 -0.5 Z M 88.7526280250652 0.5 L 106.94275605013041 0.5 L 106.94275605013041 3.5 L 113.94275605013041 0 L 106.94275605013041 -3.5 L 106.94275605013041 -0.5 L 88.7526280250652 -0.5 Z"/><text text-anchor="middle" pointer-events="none" font-size="8px" fill="#000000" x="65.9713780250652" y="3" font-family="sans-serif">ACTED_IN</text></g><g class="relationship" transform="translate(322.96569624371824 -113.14598942263505) rotate(290.3710952311966)"><path class="outline" fill="#A5ABB6" stroke="none" d="M 25 0.5 L 34.38656709351648 0.5 L 34.38656709351648 -0.5 L 25 -0.5 Z M 79.94906709351648 0.5 L 89.33563418703297 0.5 L 89.33563418703297 3.5 L 96.33563418703297 0 L 89.33563418703297 -3.5 L 89.33563418703297 -0.5 L 79.94906709351648 -0.5 Z"/><text text-anchor="middle" pointer-events="none" font-size="8px" fill="#000000" x="57.16781709351648" y="3" font-family="sans-serif">ACTED_IN</text></g><g class="relationship" transform="translate(322.96569624371824 -113.14598942263505) rotate(418.4861809586483)"><path class="outline" fill="#A5ABB6" stroke="none" d="M 25 0.5 L 26.229895625023964 0.5 L 26.229895625023964 -0.5 L 25 -0.5 Z M 67.34317687502397 0.5 L 68.57307250004793 0.5 L 68.57307250004793 3.5 L 75.57307250004793 0 L 68.57307250004793 -3.5 L 68.57307250004793 -0.5 L 67.34317687502397 -0.5 Z"/><text text-anchor="middle" pointer-events="none" font-size="8px" fill="#000000" x="46.786536250023964" y="3" font-family="sans-serif">ACTED…</text></g><g class="relationship" transform="translate(454.0012952277125 -139.44073112895177) rotate(456.23437691173524)"><path class="outline" fill="#A5ABB6" stroke="none" d="M 25 0.5 L 26.734003805600494 0.5 L 26.734003805600494 -0.5 L 25 -0.5 Z M 62.069941305600494 0.5 L 63.80394511120099 0.5 L 63.80394511120099 3.5 L 70.80394511120099 0 L 63.80394511120099 -3.5 L 63.80394511120099 -0.5 L 62.069941305600494 -0.5 Z"/><text text-anchor="middle" pointer-events="none" font-size="8px" fill="#000000" x="44.401972555600494" y="3" transform="rotate(180 44.401972555600494 0)" font-family="sans-serif">ACTE…</text></g><g class="relationship" transform="translate(454.0012952277125 -139.44073112895177) rotate(224.56229363486307)"><path class="outline" fill="#A5ABB6" stroke="none" d="M 25 0.5 L 36.03472536130032 0.5 L 36.03472536130032 -0.5 L 25 -0.5 Z M 81.59722536130032 0.5 L 92.63195072260064 0.5 L 92.63195072260064 3.5 L 99.63195072260064 0 L 92.63195072260064 -3.5 L 92.63195072260064 -0.5 L 81.59722536130032 -0.5 Z"/><text text-anchor="middle" pointer-events="none" font-size="8px" fill="#000000" x="58.81597536130032" y="3" transform="rotate(180 58.81597536130032 0)" font-family="sans-serif">ACTED_IN</text></g><g class="relationship" transform="translate(454.0012952277125 -139.44073112895177) rotate(485.00620605475535)"><path class="outline" fill="#A5ABB6" stroke="none" d="M 25 0.5 L 42.108498427916274 0.5 L 42.108498427916274 -0.5 L 25 -0.5 Z M 87.67099842791627 0.5 L 104.77949685583255 0.5 L 104.77949685583255 3.5 L 111.77949685583255 0 L 104.77949685583255 -3.5 L 104.77949685583255 -0.5 L 87.67099842791627 -0.5 Z"/><text text-anchor="middle" pointer-events="none" font-size="8px" fill="#000000" x="64.88974842791627" y="3" transform="rotate(180 64.88974842791627 0)" font-family="sans-serif">ACTED_IN</text></g><g class="relationship" transform="translate(388.71105308167097 -133.2524061850455) rotate(457.095483047788)"><path class="outline" fill="#A5ABB6" stroke="none" d="M 25 0.5 L 27.050371218860597 0.5 L 27.050371218860597 -0.5 L 25 -0.5 Z M 72.61287121886059 0.5 L 74.6632424377212 0.5 L 74.6632424377212 3.5 L 81.6632424377212 0 L 74.6632424377212 -3.5 L 74.6632424377212 -0.5 L 72.61287121886059 -0.5 Z"/><text text-anchor="middle" pointer-events="none" font-size="8px" fill="#000000" x="49.8316212188606" y="3" transform="rotate(180 49.8316212188606 0)" font-family="sans-serif">ACTED_IN</text></g><g class="relationship" transform="translate(388.71105308167097 -133.2524061850455) rotate(255.9071204137325)"><path class="outline" fill="#A5ABB6" stroke="none" d="M 25 0.5 L 27.10524997662405 0.5 L 27.10524997662405 -0.5 L 25 -0.5 Z M 62.44118747662405 0.5 L 64.5464374532481 0.5 L 64.5464374532481 3.5 L 71.5464374532481 0 L 64.5464374532481 -3.5 L 64.5464374532481 -0.5 L 62.44118747662405 -0.5 Z"/><text text-anchor="middle" pointer-events="none" font-size="8px" fill="#000000" x="44.77321872662405" y="3" transform="rotate(180 44.77321872662405 0)" font-family="sans-serif">ACTE…</text></g><g class="relationship" transform="translate(388.71105308167097 -133.2524061850455) rotate(418.35194707928804)"><path class="outline" fill="#A5ABB6" stroke="none" d="M 25 0.5 L 26.021331735992547 0.5 L 26.021331735992547 -0.5 L 25 -0.5 Z M 71.58383173599255 0.5 L 72.6051634719851 0.5 L 72.6051634719851 3.5 L 79.6051634719851 0 L 72.6051634719851 -3.5 L 72.6051634719851 -0.5 L 71.58383173599255 -0.5 Z"/><text text-anchor="middle" pointer-events="none" font-size="8px" fill="#000000" x="48.80258173599255" y="3" font-family="sans-serif">ACTED_IN</text></g><g class="relationship" transform="translate(283.9477538041871 38.61770806413024) rotate(324.2129858544626)"><path class="outline" fill="#A5ABB6" stroke="none" d="M 25 0.5 L 30.17111596915626 0.5 L 30.17111596915626 -0.5 L 25 -0.5 Z M 75.73361596915626 0.5 L 80.90473193831252 0.5 L 80.90473193831252 3.5 L 87.90473193831252 0 L 80.90473193831252 -3.5 L 80.90473193831252 -0.5 L 75.73361596915626 -0.5 Z"/><text text-anchor="middle" pointer-events="none" font-size="8px" fill="#000000" x="52.95236596915626" y="3" font-family="sans-serif">ACTED_IN</text></g><g class="relationship" transform="translate(145.97173689205846 -260.35550177367986) rotate(495.2854977177708)"><path class="outline" fill="#A5ABB6" stroke="none" d="M 25 0.5 L 28.544597866558483 0.5 L 28.544597866558483 -0.5 L 25 -0.5 Z M 74.10709786655849 0.5 L 77.65169573311697 0.5 L 77.65169573311697 3.5 L 84.65169573311697 0 L 77.65169573311697 -3.5 L 77.65169573311697 -0.5 L 74.10709786655849 -0.5 Z"/><text text-anchor="middle" pointer-events="none" font-size="8px" fill="#000000" x="51.32584786655848" y="3" transform="rotate(180 51.32584786655848 0)" font-family="sans-serif">ACTED_IN</text></g><g class="relationship" transform="translate(44.603055984967426 -296.5174967441382) rotate(438.30851655972117)"><path class="outline" fill="#A5ABB6" stroke="none" d="M 25 0.5 L 31.574150377220413 0.5 L 31.574150377220413 -0.5 L 25 -0.5 Z M 77.1366503772204 0.5 L 83.71080075444083 0.5 L 83.71080075444083 3.5 L 90.71080075444083 0 L 83.71080075444083 -3.5 L 83.71080075444083 -0.5 L 77.1366503772204 -0.5 Z"/><text text-anchor="middle" pointer-events="none" font-size="8px" fill="#000000" x="54.35540037722041" y="3" font-family="sans-serif">ACTED_IN</text></g><g class="relationship" transform="translate(-31.06126073990869 -228.0021385259856) rotate(384.3210914865244)"><path class="outline" fill="#A5ABB6" stroke="none" d="M 25 0.5 L 28.101173325916875 0.5 L 28.101173325916875 -0.5 L 25 -0.5 Z M 73.66367332591688 0.5 L 76.76484665183375 0.5 L 76.76484665183375 3.5 L 83.76484665183375 0 L 76.76484665183375 -3.5 L 76.76484665183375 -0.5 L 73.66367332591688 -0.5 Z"/><text text-anchor="middle" pointer-events="none" font-size="8px" fill="#000000" x="50.882423325916875" y="3" font-family="sans-serif">ACTED_IN</text></g><g class="relationship" transform="translate(-160.04518911255641 95.605185288384) rotate(222.75552097630396)"><path class="outline" fill="#A5ABB6" stroke="none" d="M 25 0.5 L 27.802100977844624 0.5 L 27.802100977844624 -0.5 L 25 -0.5 Z M 63.138038477844624 0.5 L 65.94013945568925 0.5 L 65.94013945568925 3.5 L 72.94013945568925 0 L 65.94013945568925 -3.5 L 65.94013945568925 -0.5 L 63.138038477844624 -0.5 Z"/><text text-anchor="middle" pointer-events="none" font-size="8px" fill="#000000" x="45.470069727844624" y="3" transform="rotate(180 45.470069727844624 0)" font-family="sans-serif">ACTE…</text></g><g class="relationship" transform="translate(-160.04518911255641 95.605185288384) rotate(260.1439602339485)"><path class="outline" fill="#A5ABB6" stroke="none" d="M 25 0.5 L 42.03162268780902 0.5 L 42.03162268780902 -0.5 L 25 -0.5 Z M 87.59412268780902 0.5 L 104.62574537561804 0.5 L 104.62574537561804 3.5 L 111.62574537561804 0 L 104.62574537561804 -3.5 L 104.62574537561804 -0.5 L 87.59412268780902 -0.5 Z"/><text text-anchor="middle" pointer-events="none" font-size="8px" fill="#000000" x="64.81287268780902" y="3" transform="rotate(180 64.81287268780902 0)" font-family="sans-serif">ACTED_IN</text></g><g class="relationship" transform="translate(-160.04518911255641 95.605185288384) rotate(182.6866161512895)"><path class="outline" fill="#A5ABB6" stroke="none" d="M 25 0.5 L 26.011663100242856 0.5 L 26.011663100242856 -0.5 L 25 -0.5 Z M 67.12494435024286 0.5 L 68.13660745048571 0.5 L 68.13660745048571 3.5 L 75.13660745048571 0 L 68.13660745048571 -3.5 L 68.13660745048571 -0.5 L 67.12494435024286 -0.5 Z"/><text text-anchor="middle" pointer-events="none" font-size="8px" fill="#000000" x="46.568303725242856" y="3" transform="rotate(180 46.568303725242856 0)" font-family="sans-serif">ACTED…</text></g><g class="relationship" transform="translate(-182.63057363405872 -152.64521987590018) rotate(450.4039864460298)"><path class="outline" fill="#A5ABB6" stroke="none" d="M 25 0.5 L 30.540725520244777 0.5 L 30.540725520244777 -0.5 L 25 -0.5 Z M 76.10322552024478 0.5 L 81.64395104048955 0.5 L 81.64395104048955 3.5 L 88.64395104048955 0 L 81.64395104048955 -3.5 L 81.64395104048955 -0.5 L 76.10322552024478 -0.5 Z"/><text text-anchor="middle" pointer-events="none" font-size="8px" fill="#000000" x="53.32197552024478" y="3" transform="rotate(180 53.32197552024478 0)" font-family="sans-serif">ACTED_IN</text></g><g class="relationship" transform="translate(-128.8458994531727 44.373769873936546) rotate(520.4735463527843)"><path class="outline" fill="#A5ABB6" stroke="none" d="M 25 0.5 L 43.335516267492366 0.5 L 43.335516267492366 -0.5 L 25 -0.5 Z M 88.89801626749237 0.5 L 107.23353253498473 0.5 L 107.23353253498473 3.5 L 114.23353253498473 0 L 107.23353253498473 -3.5 L 107.23353253498473 -0.5 L 88.89801626749237 -0.5 Z"/><text text-anchor="middle" pointer-events="none" font-size="8px" fill="#000000" x="66.11676626749237" y="3" transform="rotate(180 66.11676626749237 0)" font-family="sans-serif">ACTED_IN</text></g><g class="relationship" transform="translate(-128.8458994531727 44.373769873936546) rotate(236.78796630259546)"><path class="outline" fill="#A5ABB6" stroke="none" d="M 25 0.5 L 25.771802693949063 0.5 L 25.771802693949063 -0.5 L 25 -0.5 Z M 66.88508394394907 0.5 L 67.65688663789813 0.5 L 67.65688663789813 3.5 L 74.65688663789813 0 L 67.65688663789813 -3.5 L 67.65688663789813 -0.5 L 66.88508394394907 -0.5 Z"/><text text-anchor="middle" pointer-events="none" font-size="8px" fill="#000000" x="46.32844331894906" y="3" transform="rotate(180 46.32844331894906 0)" font-family="sans-serif">ACTED…</text></g><g class="relationship" transform="translate(-128.8458994531727 44.373769873936546) rotate(188.41686811569207)"><path class="outline" fill="#A5ABB6" stroke="none" d="M 25 0.5 L 25.83636013179352 0.5 L 25.83636013179352 -0.5 L 25 -0.5 Z M 71.39886013179353 0.5 L 72.23522026358704 0.5 L 72.23522026358704 3.5 L 79.23522026358704 0 L 72.23522026358704 -3.5 L 72.23522026358704 -0.5 L 71.39886013179353 -0.5 Z"/><text text-anchor="middle" pointer-events="none" font-size="8px" fill="#000000" x="48.61761013179352" y="3" transform="rotate(180 48.61761013179352 0)" font-family="sans-serif">ACTED_IN</text></g><g class="relationship" transform="translate(-305.09375172685185 -25.00924382750604) rotate(428.77451084439633)"><path class="outline" fill="#A5ABB6" stroke="none" d="M 25 0.5 L 35.89711097110218 0.5 L 35.89711097110218 -0.5 L 25 -0.5 Z M 81.45961097110218 0.5 L 92.35672194220436 0.5 L 92.35672194220436 3.5 L 99.35672194220436 0 L 92.35672194220436 -3.5 L 92.35672194220436 -0.5 L 81.45961097110218 -0.5 Z"/><text text-anchor="middle" pointer-events="none" font-size="8px" fill="#000000" x="58.67836097110218" y="3" font-family="sans-serif">ACTED_IN</text></g><g class="relationship" transform="translate(-305.09375172685185 -25.00924382750604) rotate(396.50423672697855)"><path class="outline" fill="#A5ABB6" stroke="none" d="M 25 0.5 L 26.99275238088817 0.5 L 26.99275238088817 -0.5 L 25 -0.5 Z M 56.99275238088817 0.5 L 58.98550476177634 0.5 L 58.98550476177634 3.5 L 65.98550476177634 0 L 58.98550476177634 -3.5 L 58.98550476177634 -0.5 L 56.99275238088817 -0.5 Z"/><text text-anchor="middle" pointer-events="none" font-size="8px" fill="#000000" x="41.99275238088817" y="3" font-family="sans-serif">ACT…</text></g><g class="relationship" transform="translate(-305.09375172685185 -25.00924382750604) rotate(353.43806890666247)"><path class="outline" fill="#A5ABB6" stroke="none" d="M 25 0.5 L 34.95083332011956 0.5 L 34.95083332011956 -0.5 L 25 -0.5 Z M 80.51333332011956 0.5 L 90.46416664023911 0.5 L 90.46416664023911 3.5 L 97.46416664023911 0 L 90.46416664023911 -3.5 L 90.46416664023911 -0.5 L 80.51333332011956 -0.5 Z"/><text text-anchor="middle" pointer-events="none" font-size="8px" fill="#000000" x="57.73208332011956" y="3" font-family="sans-serif">ACTED_IN</text></g><g class="relationship" transform="translate(-259.5731841861014 364.7105893291208) rotate(391.9931284642207)"><path class="outline" fill="#A5ABB6" stroke="none" d="M 25 0.5 L 28.42435091983645 0.5 L 28.42435091983645 -0.5 L 25 -0.5 Z M 73.98685091983646 0.5 L 77.4112018396729 0.5 L 77.4112018396729 3.5 L 84.4112018396729 0 L 77.4112018396729 -3.5 L 77.4112018396729 -0.5 L 73.98685091983646 -0.5 Z"/><text text-anchor="middle" pointer-events="none" font-size="8px" fill="#000000" x="51.20560091983645" y="3" font-family="sans-serif">ACTED_IN</text></g><g class="relationship" transform="translate(-147.6084014865118 527.8957966722584) rotate(259.67329918650603)"><path class="outline" fill="#A5ABB6" stroke="none" d="M 25 0.5 L 27.19357227328628 0.5 L 27.19357227328628 -0.5 L 25 -0.5 Z M 72.75607227328628 0.5 L 74.94964454657256 0.5 L 74.94964454657256 3.5 L 81.94964454657256 0 L 74.94964454657256 -3.5 L 74.94964454657256 -0.5 L 72.75607227328628 -0.5 Z"/><text text-anchor="middle" pointer-events="none" font-size="8px" fill="#000000" x="49.97482227328628" y="3" transform="rotate(180 49.97482227328628 0)" font-family="sans-serif">ACTED_IN</text></g><g class="relationship" transform="translate(-118.26553980710365 326.5724994194529) rotate(476.7848288264)"><path class="outline" fill="#A5ABB6" stroke="none" d="M 25 0.5 L 27.547308409984915 0.5 L 27.547308409984915 -0.5 L 25 -0.5 Z M 73.10980840998491 0.5 L 75.65711681996983 0.5 L 75.65711681996983 3.5 L 82.65711681996983 0 L 75.65711681996983 -3.5 L 75.65711681996983 -0.5 L 73.10980840998491 -0.5 Z"/><text text-anchor="middle" pointer-events="none" font-size="8px" fill="#000000" x="50.328558409984915" y="3" transform="rotate(180 50.328558409984915 0)" font-family="sans-serif">ACTED_IN</text></g><g class="relationship" transform="translate(-58.871790461622034 455.6180639158138) rotate(196.97502159085707)"><path class="outline" fill="#A5ABB6" stroke="none" d="M 25 0.5 L 30.130740217553573 0.5 L 30.130740217553573 -0.5 L 25 -0.5 Z M 75.69324021755358 0.5 L 80.82398043510715 0.5 L 80.82398043510715 3.5 L 87.82398043510715 0 L 80.82398043510715 -3.5 L 80.82398043510715 -0.5 L 75.69324021755358 -0.5 Z"/><text text-anchor="middle" pointer-events="none" font-size="8px" fill="#000000" x="52.91199021755357" y="3" transform="rotate(180 52.91199021755357 0)" font-family="sans-serif">ACTED_IN</text></g></g><g class="layer nodes"><g class="node" transform="translate(81.8347647482129,262.1087022884887)"><circle class="outline" cx="0" cy="0" r="25" fill="#57C7E3" stroke="#23b3d7" stroke-width="2px"/><text text-anchor="middle" pointer-events="none" font-family="sans-serif" dy="1.5625" font-size="25" fill="#FFFFFF"/><text text-anchor="middle" pointer-events="none" font-family="sans-serif" dy="1.5625" font-size="25" fill="#FFFFFF"/><text text-anchor="middle" pointer-events="none" y="0" font-size="10px" fill="#FFFFFF" font-family="sans-serif"> Tom</text><text text-anchor="middle" pointer-events="none" y="10" font-size="10px" fill="#FFFFFF" font-family="sans-serif"> Hanks</text></g><g class="node" transform="translate(187.61080750018786,280.4139724830385)"><circle class="outline" cx="0" cy="0" r="25" fill="#F79767" stroke="#f36924" stroke-width="2px"/><text text-anchor="middle" pointer-events="none" font-family="sans-serif" dy="1.5625" font-size="25" fill="#FFFFFF"/><text text-anchor="middle" pointer-events="none" font-family="sans-serif" dy="1.5625" font-size="25" fill="#FFFFFF"/><text text-anchor="middle" pointer-events="none" y="0" font-size="10px" fill="#FFFFFF" font-family="sans-serif"> Cloud</text><text text-anchor="middle" pointer-events="none" y="10" font-size="10px" fill="#FFFFFF" font-family="sans-serif"> Atlas</text></g><g class="node" transform="translate(163.26276698199138,390.2987017446131)"><circle class="outline" cx="0" cy="0" r="25" fill="#57C7E3" stroke="#23b3d7" stroke-width="2px"/><text text-anchor="middle" pointer-events="none" font-family="sans-serif" dy="1.5625" font-size="25" fill="#FFFFFF"/><text text-anchor="middle" pointer-events="none" font-family="sans-serif" dy="1.5625" font-size="25" fill="#FFFFFF"/><text text-anchor="middle" pointer-events="none" y="0" font-size="10px" fill="#FFFFFF" font-family="sans-serif"> Jim</text><text text-anchor="middle" pointer-events="none" y="10" font-size="10px" fill="#FFFFFF" font-family="sans-serif"> Broadb…</text></g><g class="node" transform="translate(172.24153976521285,172.65060947883438)"><circle class="outline" cx="0" cy="0" r="25" fill="#57C7E3" stroke="#23b3d7" stroke-width="2px"/><text text-anchor="middle" pointer-events="none" font-family="sans-serif" dy="1.5625" font-size="25" fill="#FFFFFF"/><text text-anchor="middle" pointer-events="none" font-family="sans-serif" dy="1.5625" font-size="25" fill="#FFFFFF"/><text text-anchor="middle" pointer-events="none" y="0" font-size="10px" fill="#FFFFFF" font-family="sans-serif"> Halle</text><text text-anchor="middle" pointer-events="none" y="10" font-size="10px" fill="#FFFFFF" font-family="sans-serif"> Berry</text></g><g class="node" transform="translate(388.1157915534582,485.07983701670963)"><circle class="outline" cx="0" cy="0" r="25" fill="#57C7E3" stroke="#23b3d7" stroke-width="2px"/><text text-anchor="middle" pointer-events="none" font-family="sans-serif" dy="1.5625" font-size="25" fill="#FFFFFF"/><text text-anchor="middle" pointer-events="none" font-family="sans-serif" dy="1.5625" font-size="25" fill="#FFFFFF"/><text text-anchor="middle" pointer-events="none" y="0" font-size="10px" fill="#FFFFFF" font-family="sans-serif"> Stephen</text><text text-anchor="middle" pointer-events="none" y="10" font-size="10px" fill="#FFFFFF" font-family="sans-serif"> Rea</text></g><g class="node" transform="translate(446.3575507240708,388.09402160299516)"><circle class="outline" cx="0" cy="0" r="25" fill="#F79767" stroke="#f36924" stroke-width="2px"/><text text-anchor="middle" pointer-events="none" font-family="sans-serif" dy="1.5625" font-size="25" fill="#FFFFFF"/><text text-anchor="middle" pointer-events="none" font-family="sans-serif" dy="1.5625" font-size="25" fill="#FFFFFF"/><text text-anchor="middle" pointer-events="none" y="0" font-size="10px" fill="#FFFFFF" font-family="sans-serif"> V for</text><text text-anchor="middle" pointer-events="none" y="10" font-size="10px" fill="#FFFFFF" font-family="sans-serif"> Vendetta</text></g><g class="node" transform="translate(336.8895332783609,387.1996211550368)"><circle class="outline" cx="0" cy="0" r="25" fill="#57C7E3" stroke="#23b3d7" stroke-width="2px"/><text text-anchor="middle" pointer-events="none" font-family="sans-serif" dy="1.5625" font-size="25" fill="#FFFFFF"/><text text-anchor="middle" pointer-events="none" font-family="sans-serif" dy="1.5625" font-size="25" fill="#FFFFFF"/><text text-anchor="middle" pointer-events="none" y="0" font-size="10px" fill="#FFFFFF" font-family="sans-serif"> Natalie</text><text text-anchor="middle" pointer-events="none" y="10" font-size="10px" fill="#FFFFFF" font-family="sans-serif"> Portman</text></g><g class="node" transform="translate(533.7231450839178,320.60427974584013)"><circle class="outline" cx="0" cy="0" r="25" fill="#57C7E3" stroke="#23b3d7" stroke-width="2px"/><text text-anchor="middle" pointer-events="none" font-family="sans-serif" dy="1.5625" font-size="25" fill="#FFFFFF"/><text text-anchor="middle" pointer-events="none" y="5" font-size="10px" fill="#FFFFFF" font-family="sans-serif"> John Hurt</text></g><g class="node" transform="translate(434.1266912656722,275.5046960007429)"><circle class="outline" cx="0" cy="0" r="25" fill="#57C7E3" stroke="#23b3d7" stroke-width="2px"/><text text-anchor="middle" pointer-events="none" font-family="sans-serif" dy="1.5625" font-size="25" fill="#FFFFFF"/><text text-anchor="middle" pointer-events="none" y="5" font-size="10px" fill="#FFFFFF" font-family="sans-serif"> Ben Miles</text></g><g class="node" transform="translate(322.96569624371824,-113.14598942263505)"><circle class="outline" cx="0" cy="0" r="25" fill="#57C7E3" stroke="#23b3d7" stroke-width="2px"/><text text-anchor="middle" pointer-events="none" font-family="sans-serif" dy="1.5625" font-size="25" fill="#FFFFFF"/><text text-anchor="middle" pointer-events="none" font-family="sans-serif" dy="1.5625" font-size="25" fill="#FFFFFF"/><text text-anchor="middle" pointer-events="none" y="0" font-size="10px" fill="#FFFFFF" font-family="sans-serif"> Keanu</text><text text-anchor="middle" pointer-events="none" y="10" font-size="10px" fill="#FFFFFF" font-family="sans-serif"> Reeves</text></g><g class="node" transform="translate(443.5973875209638,-44.20337184542549)"><circle class="outline" cx="0" cy="0" r="25" fill="#F79767" stroke="#f36924" stroke-width="2px"/><text text-anchor="middle" pointer-events="none" font-family="sans-serif" dy="1.5625" font-size="25" fill="#FFFFFF"/><text text-anchor="middle" pointer-events="none" font-family="sans-serif" dy="1.5625" font-size="25" fill="#FFFFFF"/><text text-anchor="middle" pointer-events="none" font-family="sans-serif" dy="1.5625" font-size="25" fill="#FFFFFF"/><text text-anchor="middle" pointer-events="none" y="-5" font-size="10px" fill="#FFFFFF" font-family="sans-serif"> The</text><text text-anchor="middle" pointer-events="none" y="5" font-size="10px" fill="#FFFFFF" font-family="sans-serif"> Matrix</text><text text-anchor="middle" pointer-events="none" y="15" font-size="10px" fill="#FFFFFF" font-family="sans-serif"> Revol…</text></g><g class="node" transform="translate(454.0012952277125,-139.44073112895177)"><circle class="outline" cx="0" cy="0" r="25" fill="#57C7E3" stroke="#23b3d7" stroke-width="2px"/><text text-anchor="middle" pointer-events="none" font-family="sans-serif" dy="1.5625" font-size="25" fill="#FFFFFF"/><text text-anchor="middle" pointer-events="none" y="5" font-size="10px" fill="#FFFFFF" font-family="sans-serif"> Carrie-A…</text></g><g class="node" transform="translate(388.71105308167097,-133.2524061850455)"><circle class="outline" cx="0" cy="0" r="25" fill="#57C7E3" stroke="#23b3d7" stroke-width="2px"/><text text-anchor="middle" pointer-events="none" font-family="sans-serif" dy="1.5625" font-size="25" fill="#FFFFFF"/><text text-anchor="middle" pointer-events="none" font-family="sans-serif" dy="1.5625" font-size="25" fill="#FFFFFF"/><text text-anchor="middle" pointer-events="none" y="0" font-size="10px" fill="#FFFFFF" font-family="sans-serif"> Laurence</text><text text-anchor="middle" pointer-events="none" y="10" font-size="10px" fill="#FFFFFF" font-family="sans-serif"> Fishbur…</text></g><g class="node" transform="translate(365.20252855736646,-226.89301628346445)"><circle class="outline" cx="0" cy="0" r="25" fill="#F79767" stroke="#f36924" stroke-width="2px"/><text text-anchor="middle" pointer-events="none" font-family="sans-serif" dy="1.5625" font-size="25" fill="#FFFFFF"/><text text-anchor="middle" pointer-events="none" font-family="sans-serif" dy="1.5625" font-size="25" fill="#FFFFFF"/><text text-anchor="middle" pointer-events="none" font-family="sans-serif" dy="1.5625" font-size="25" fill="#FFFFFF"/><text text-anchor="middle" pointer-events="none" y="-5" font-size="10px" fill="#FFFFFF" font-family="sans-serif"> The</text><text text-anchor="middle" pointer-events="none" y="5" font-size="10px" fill="#FFFFFF" font-family="sans-serif"> Matrix</text><text text-anchor="middle" pointer-events="none" y="15" font-size="10px" fill="#FFFFFF" font-family="sans-serif"> Reloa…</text></g><g class="node" transform="translate(283.9477538041871,38.61770806413024)"><circle class="outline" cx="0" cy="0" r="25" fill="#57C7E3" stroke="#23b3d7" stroke-width="2px"/><text text-anchor="middle" pointer-events="none" font-family="sans-serif" dy="1.5625" font-size="25" fill="#FFFFFF"/><text text-anchor="middle" pointer-events="none" font-family="sans-serif" dy="1.5625" font-size="25" fill="#FFFFFF"/><text text-anchor="middle" pointer-events="none" y="0" font-size="10px" fill="#FFFFFF" font-family="sans-serif"> Emil</text><text text-anchor="middle" pointer-events="none" y="10" font-size="10px" fill="#FFFFFF" font-family="sans-serif"> Eifrem</text></g><g class="node" transform="translate(375.53566323379033,-27.406025095825203)"><circle class="outline" cx="0" cy="0" r="25" fill="#F79767" stroke="#f36924" stroke-width="2px"/><text text-anchor="middle" pointer-events="none" font-family="sans-serif" dy="1.5625" font-size="25" fill="#FFFFFF"/><text text-anchor="middle" pointer-events="none" font-family="sans-serif" dy="1.5625" font-size="25" fill="#FFFFFF"/><text text-anchor="middle" pointer-events="none" y="0" font-size="10px" fill="#FFFFFF" font-family="sans-serif"> The</text><text text-anchor="middle" pointer-events="none" y="10" font-size="10px" fill="#FFFFFF" font-family="sans-serif"> Matrix</text></g><g class="node" transform="translate(145.97173689205846,-260.35550177367986)"><circle class="outline" cx="0" cy="0" r="25" fill="#57C7E3" stroke="#23b3d7" stroke-width="2px"/><text text-anchor="middle" pointer-events="none" font-family="sans-serif" dy="1.5625" font-size="25" fill="#FFFFFF"/><text text-anchor="middle" pointer-events="none" font-family="sans-serif" dy="1.5625" font-size="25" fill="#FFFFFF"/><text text-anchor="middle" pointer-events="none" y="0" font-size="10px" fill="#FFFFFF" font-family="sans-serif"> Tom</text><text text-anchor="middle" pointer-events="none" y="10" font-size="10px" fill="#FFFFFF" font-family="sans-serif"> Hanks</text></g><g class="node" transform="translate(68.0508939255322,-183.20735462461337)"><circle class="outline" cx="0" cy="0" r="25" fill="#F79767" stroke="#f36924" stroke-width="2px"/><text text-anchor="middle" pointer-events="none" font-family="sans-serif" dy="1.5625" font-size="25" fill="#FFFFFF"/><text text-anchor="middle" pointer-events="none" font-family="sans-serif" dy="1.5625" font-size="25" fill="#FFFFFF"/><text text-anchor="middle" pointer-events="none" y="0" font-size="10px" fill="#FFFFFF" font-family="sans-serif"> Cloud</text><text text-anchor="middle" pointer-events="none" y="10" font-size="10px" fill="#FFFFFF" font-family="sans-serif"> Atlas</text></g><g class="node" transform="translate(44.603055984967426,-296.5174967441382)"><circle class="outline" cx="0" cy="0" r="25" fill="#57C7E3" stroke="#23b3d7" stroke-width="2px"/><text text-anchor="middle" pointer-events="none" font-family="sans-serif" dy="1.5625" font-size="25" fill="#FFFFFF"/><text text-anchor="middle" pointer-events="none" font-family="sans-serif" dy="1.5625" font-size="25" fill="#FFFFFF"/><text text-anchor="middle" pointer-events="none" y="0" font-size="10px" fill="#FFFFFF" font-family="sans-serif"> Jim</text><text text-anchor="middle" pointer-events="none" y="10" font-size="10px" fill="#FFFFFF" font-family="sans-serif"> Broadb…</text></g><g class="node" transform="translate(-31.06126073990869,-228.0021385259856)"><circle class="outline" cx="0" cy="0" r="25" fill="#57C7E3" stroke="#23b3d7" stroke-width="2px"/><text text-anchor="middle" pointer-events="none" font-family="sans-serif" dy="1.5625" font-size="25" fill="#FFFFFF"/><text text-anchor="middle" pointer-events="none" font-family="sans-serif" dy="1.5625" font-size="25" fill="#FFFFFF"/><text text-anchor="middle" pointer-events="none" y="0" font-size="10px" fill="#FFFFFF" font-family="sans-serif"> Halle</text><text text-anchor="middle" pointer-events="none" y="10" font-size="10px" fill="#FFFFFF" font-family="sans-serif"> Berry</text></g><g class="node" transform="translate(-160.04518911255641,95.605185288384)"><circle class="outline" cx="0" cy="0" r="25" fill="#57C7E3" stroke="#23b3d7" stroke-width="2px"/><text text-anchor="middle" pointer-events="none" font-family="sans-serif" dy="1.5625" font-size="25" fill="#FFFFFF"/><text text-anchor="middle" pointer-events="none" y="5" font-size="10px" fill="#FFFFFF" font-family="sans-serif"> Carrie-A…</text></g><g class="node" transform="translate(-183.43185840365706,-39.00409373394751)"><circle class="outline" cx="0" cy="0" r="25" fill="#F79767" stroke="#f36924" stroke-width="2px"/><text text-anchor="middle" pointer-events="none" font-family="sans-serif" dy="1.5625" font-size="25" fill="#FFFFFF"/><text text-anchor="middle" pointer-events="none" font-family="sans-serif" dy="1.5625" font-size="25" fill="#FFFFFF"/><text text-anchor="middle" pointer-events="none" y="0" font-size="10px" fill="#FFFFFF" font-family="sans-serif"> The</text><text text-anchor="middle" pointer-events="none" y="10" font-size="10px" fill="#FFFFFF" font-family="sans-serif"> Matrix</text></g><g class="node" transform="translate(-182.63057363405872,-152.64521987590018)"><circle class="outline" cx="0" cy="0" r="25" fill="#57C7E3" stroke="#23b3d7" stroke-width="2px"/><text text-anchor="middle" pointer-events="none" font-family="sans-serif" dy="1.5625" font-size="25" fill="#FFFFFF"/><text text-anchor="middle" pointer-events="none" font-family="sans-serif" dy="1.5625" font-size="25" fill="#FFFFFF"/><text text-anchor="middle" pointer-events="none" y="0" font-size="10px" fill="#FFFFFF" font-family="sans-serif"> Emil</text><text text-anchor="middle" pointer-events="none" y="10" font-size="10px" fill="#FFFFFF" font-family="sans-serif"> Eifrem</text></g><g class="node" transform="translate(-128.8458994531727,44.373769873936546)"><circle class="outline" cx="0" cy="0" r="25" fill="#57C7E3" stroke="#23b3d7" stroke-width="2px"/><text text-anchor="middle" pointer-events="none" font-family="sans-serif" dy="1.5625" font-size="25" fill="#FFFFFF"/><text text-anchor="middle" pointer-events="none" font-family="sans-serif" dy="1.5625" font-size="25" fill="#FFFFFF"/><text text-anchor="middle" pointer-events="none" y="0" font-size="10px" fill="#FFFFFF" font-family="sans-serif"> Keanu</text><text text-anchor="middle" pointer-events="none" y="10" font-size="10px" fill="#FFFFFF" font-family="sans-serif"> Reeves</text></g><g class="node" transform="translate(-305.09375172685185,-25.00924382750604)"><circle class="outline" cx="0" cy="0" r="25" fill="#57C7E3" stroke="#23b3d7" stroke-width="2px"/><text text-anchor="middle" pointer-events="none" font-family="sans-serif" dy="1.5625" font-size="25" fill="#FFFFFF"/><text text-anchor="middle" pointer-events="none" font-family="sans-serif" dy="1.5625" font-size="25" fill="#FFFFFF"/><text text-anchor="middle" pointer-events="none" y="0" font-size="10px" fill="#FFFFFF" font-family="sans-serif"> Laurence</text><text text-anchor="middle" pointer-events="none" y="10" font-size="10px" fill="#FFFFFF" font-family="sans-serif"> Fishbur…</text></g><g class="node" transform="translate(-260.07173155217566,90.91147041978361)"><circle class="outline" cx="0" cy="0" r="25" fill="#F79767" stroke="#f36924" stroke-width="2px"/><text text-anchor="middle" pointer-events="none" font-family="sans-serif" dy="1.5625" font-size="25" fill="#FFFFFF"/><text text-anchor="middle" pointer-events="none" font-family="sans-serif" dy="1.5625" font-size="25" fill="#FFFFFF"/><text text-anchor="middle" pointer-events="none" font-family="sans-serif" dy="1.5625" font-size="25" fill="#FFFFFF"/><text text-anchor="middle" pointer-events="none" y="-5" font-size="10px" fill="#FFFFFF" font-family="sans-serif"> The</text><text text-anchor="middle" pointer-events="none" y="5" font-size="10px" fill="#FFFFFF" font-family="sans-serif"> Matrix</text><text text-anchor="middle" pointer-events="none" y="15" font-size="10px" fill="#FFFFFF" font-family="sans-serif"> Revol…</text></g><g class="node" transform="translate(-231.9584316204132,29.11641579604012)"><circle class="outline" cx="0" cy="0" r="25" fill="#F79767" stroke="#f36924" stroke-width="2px"/><text text-anchor="middle" pointer-events="none" font-family="sans-serif" dy="1.5625" font-size="25" fill="#FFFFFF"/><text text-anchor="middle" pointer-events="none" font-family="sans-serif" dy="1.5625" font-size="25" fill="#FFFFFF"/><text text-anchor="middle" pointer-events="none" font-family="sans-serif" dy="1.5625" font-size="25" fill="#FFFFFF"/><text text-anchor="middle" pointer-events="none" y="-5" font-size="10px" fill="#FFFFFF" font-family="sans-serif"> The</text><text text-anchor="middle" pointer-events="none" y="5" font-size="10px" fill="#FFFFFF" font-family="sans-serif"> Matrix</text><text text-anchor="middle" pointer-events="none" y="15" font-size="10px" fill="#FFFFFF" font-family="sans-serif"> Reloa…</text></g><g class="node" transform="translate(-259.5731841861014,364.7105893291208)"><circle class="outline" cx="0" cy="0" r="25" fill="#57C7E3" stroke="#23b3d7" stroke-width="2px"/><text text-anchor="middle" pointer-events="none" font-family="sans-serif" dy="1.5625" font-size="25" fill="#FFFFFF"/><text text-anchor="middle" pointer-events="none" y="5" font-size="10px" fill="#FFFFFF" font-family="sans-serif"> John Hurt</text></g><g class="node" transform="translate(-166.7802699476213,422.67856458383983)"><circle class="outline" cx="0" cy="0" r="25" fill="#F79767" stroke="#f36924" stroke-width="2px"/><text text-anchor="middle" pointer-events="none" font-family="sans-serif" dy="1.5625" font-size="25" fill="#FFFFFF"/><text text-anchor="middle" pointer-events="none" font-family="sans-serif" dy="1.5625" font-size="25" fill="#FFFFFF"/><text text-anchor="middle" pointer-events="none" y="0" font-size="10px" fill="#FFFFFF" font-family="sans-serif"> V for</text><text text-anchor="middle" pointer-events="none" y="10" font-size="10px" fill="#FFFFFF" font-family="sans-serif"> Vendetta</text></g><g class="node" transform="translate(-147.6084014865118,527.8957966722584)"><circle class="outline" cx="0" cy="0" r="25" fill="#57C7E3" stroke="#23b3d7" stroke-width="2px"/><text text-anchor="middle" pointer-events="none" font-family="sans-serif" dy="1.5625" font-size="25" fill="#FFFFFF"/><text text-anchor="middle" pointer-events="none" font-family="sans-serif" dy="1.5625" font-size="25" fill="#FFFFFF"/><text text-anchor="middle" pointer-events="none" y="0" font-size="10px" fill="#FFFFFF" font-family="sans-serif"> Stephen</text><text text-anchor="middle" pointer-events="none" y="10" font-size="10px" fill="#FFFFFF" font-family="sans-serif"> Rea</text></g><g class="node" transform="translate(-118.26553980710365,326.5724994194529)"><circle class="outline" cx="0" cy="0" r="25" fill="#57C7E3" stroke="#23b3d7" stroke-width="2px"/><text text-anchor="middle" pointer-events="none" font-family="sans-serif" dy="1.5625" font-size="25" fill="#FFFFFF"/><text text-anchor="middle" pointer-events="none" y="5" font-size="10px" fill="#FFFFFF" font-family="sans-serif"> Ben Miles</text></g><g class="node" transform="translate(-58.871790461622034,455.6180639158138)"><circle class="outline" cx="0" cy="0" r="25" fill="#57C7E3" stroke="#23b3d7" stroke-width="2px"/><text text-anchor="middle" pointer-events="none" font-family="sans-serif" dy="1.5625" font-size="25" fill="#FFFFFF"/><text text-anchor="middle" pointer-events="none" font-family="sans-serif" dy="1.5625" font-size="25" fill="#FFFFFF"/><text text-anchor="middle" pointer-events="none" y="0" font-size="10px" fill="#FFFFFF" font-family="sans-serif"> Natalie</text><text text-anchor="middle" pointer-events="none" y="10" font-size="10px" fill="#FFFFFF" font-family="sans-serif"> Portman</text></g></g></svg>